<svg width="99" height="54" viewBox="0 0 99 54" fill="none" xmlns="http://www.w3.org/2000/svg">
<rect x="1" y="1" width="97" height="52" rx="26" fill="#FFB742"/>
<path d="M31.9321 33.126C31.0081 33.126 30.1801 32.976 29.4481 32.676C28.7161 32.376 28.1281 31.932 27.6841 31.344C27.2521 30.756 27.0241 30.048 27.0001 29.22H30.2761C30.3241 29.688 30.4861 30.048 30.7621 30.3C31.0381 30.54 31.3981 30.66 31.8421 30.66C32.2981 30.66 32.6581 30.558 32.9221 30.354C33.1861 30.138 33.3181 29.844 33.3181 29.472C33.3181 29.16 33.2101 28.902 32.9941 28.698C32.7901 28.494 32.5321 28.326 32.2201 28.194C31.9201 28.062 31.4881 27.912 30.9241 27.744C30.1081 27.492 29.4421 27.24 28.9261 26.988C28.4101 26.736 27.9661 26.364 27.5941 25.872C27.2221 25.38 27.0361 24.738 27.0361 23.946C27.0361 22.77 27.4621 21.852 28.3141 21.192C29.1661 20.52 30.2761 20.184 31.6441 20.184C33.0361 20.184 34.1581 20.52 35.0101 21.192C35.8621 21.852 36.3181 22.776 36.3781 23.964H33.0481C33.0241 23.556 32.8741 23.238 32.5981 23.01C32.3221 22.77 31.9681 22.65 31.5361 22.65C31.1641 22.65 30.8641 22.752 30.6361 22.956C30.4081 23.148 30.2941 23.43 30.2941 23.802C30.2941 24.21 30.4861 24.528 30.8701 24.756C31.2541 24.984 31.8541 25.23 32.6701 25.494C33.4861 25.77 34.1461 26.034 34.6501 26.286C35.1661 26.538 35.6101 26.904 35.9821 27.384C36.3541 27.864 36.5401 28.482 36.5401 29.238C36.5401 29.958 36.3541 30.612 35.9821 31.2C35.6221 31.788 35.0941 32.256 34.3981 32.604C33.7021 32.952 32.8801 33.126 31.9321 33.126ZM47.9024 27.816C47.9024 28.104 47.8844 28.404 47.8484 28.716H40.8824C40.9304 29.34 41.1284 29.82 41.4764 30.156C41.8364 30.48 42.2744 30.642 42.7904 30.642C43.5584 30.642 44.0924 30.318 44.3924 29.67H47.6684C47.5004 30.33 47.1944 30.924 46.7504 31.452C46.3184 31.98 45.7724 32.394 45.1124 32.694C44.4524 32.994 43.7144 33.144 42.8984 33.144C41.9144 33.144 41.0384 32.934 40.2704 32.514C39.5024 32.094 38.9024 31.494 38.4704 30.714C38.0384 29.934 37.8224 29.022 37.8224 27.978C37.8224 26.934 38.0324 26.022 38.4524 25.242C38.8844 24.462 39.4844 23.862 40.2524 23.442C41.0204 23.022 41.9024 22.812 42.8984 22.812C43.8704 22.812 44.7344 23.016 45.4904 23.424C46.2464 23.832 46.8344 24.414 47.2544 25.17C47.6864 25.926 47.9024 26.808 47.9024 27.816ZM44.7524 27.006C44.7524 26.478 44.5724 26.058 44.2124 25.746C43.8524 25.434 43.4024 25.278 42.8624 25.278C42.3464 25.278 41.9084 25.428 41.5484 25.728C41.2004 26.028 40.9844 26.454 40.9004 27.006H44.7524ZM55.6462 22.848C56.8222 22.848 57.7582 23.232 58.4542 24C59.1622 24.756 59.5162 25.8 59.5162 27.132V33H56.4562V27.546C56.4562 26.874 56.2822 26.352 55.9342 25.98C55.5862 25.608 55.1182 25.422 54.5302 25.422C53.9422 25.422 53.4742 25.608 53.1262 25.98C52.7782 26.352 52.6042 26.874 52.6042 27.546V33H49.5262V22.956H52.6042V24.288C52.9162 23.844 53.3362 23.496 53.8642 23.244C54.3922 22.98 54.9862 22.848 55.6462 22.848ZM61.0431 27.96C61.0431 26.928 61.2351 26.022 61.6191 25.242C62.0151 24.462 62.5491 23.862 63.2211 23.442C63.8931 23.022 64.6431 22.812 65.4711 22.812C66.1311 22.812 66.7311 22.95 67.2711 23.226C67.8231 23.502 68.2551 23.874 68.5671 24.342V19.68H71.6451V33H68.5671V31.56C68.2791 32.04 67.8651 32.424 67.3251 32.712C66.7971 33 66.1791 33.144 65.4711 33.144C64.6431 33.144 63.8931 32.934 63.2211 32.514C62.5491 32.082 62.0151 31.476 61.6191 30.696C61.2351 29.904 61.0431 28.992 61.0431 27.96ZM68.5671 27.978C68.5671 27.21 68.3511 26.604 67.9191 26.16C67.4991 25.716 66.9831 25.494 66.3711 25.494C65.7591 25.494 65.2371 25.716 64.8051 26.16C64.3851 26.592 64.1751 27.192 64.1751 27.96C64.1751 28.728 64.3851 29.34 64.8051 29.796C65.2371 30.24 65.7591 30.462 66.3711 30.462C66.9831 30.462 67.4991 30.24 67.9191 29.796C68.3511 29.352 68.5671 28.746 68.5671 27.978Z" fill="#212529"/>
<rect x="1" y="1" width="97" height="52" rx="26" stroke="#FFB742" stroke-width="2"/>
</svg>
